<mxfile host="app.diagrams.net" agent="Mozilla/5.0 (Windows NT 10.0; Win64; x64) AppleWebKit/537.36 (KHTML, like Gecko) Chrome/134.0.0.0 Safari/537.36" version="26.2.3">
  <diagram name="Page-1" id="nFXvmmJUyRS3xtwpFZWH">
    <mxGraphModel dx="1641" dy="853" grid="1" gridSize="10" guides="1" tooltips="1" connect="1" arrows="1" fold="1" page="1" pageScale="1" pageWidth="850" pageHeight="1100" math="0" shadow="0">
      <root>
        <mxCell id="0" />
        <mxCell id="1" parent="0" />
        <mxCell id="8mV6GlIWKGGO815or_Ux-2" value="USERS" style="rounded=0;whiteSpace=wrap;html=1;" vertex="1" parent="1">
          <mxGeometry x="360" y="80" width="90" height="40" as="geometry" />
        </mxCell>
        <mxCell id="8mV6GlIWKGGO815or_Ux-3" value="ORDERDETAILS" style="rounded=0;whiteSpace=wrap;html=1;" vertex="1" parent="1">
          <mxGeometry x="360" y="540" width="90" height="40" as="geometry" />
        </mxCell>
        <mxCell id="8mV6GlIWKGGO815or_Ux-4" value="CUSTOMERS" style="rounded=0;whiteSpace=wrap;html=1;" vertex="1" parent="1">
          <mxGeometry x="90" y="320" width="90" height="40" as="geometry" />
        </mxCell>
        <mxCell id="8mV6GlIWKGGO815or_Ux-5" value="PRODUCTS" style="rounded=0;whiteSpace=wrap;html=1;" vertex="1" parent="1">
          <mxGeometry x="640" y="320" width="90" height="40" as="geometry" />
        </mxCell>
        <mxCell id="8mV6GlIWKGGO815or_Ux-6" value="" style="endArrow=none;html=1;rounded=0;entryX=0.5;entryY=1;entryDx=0;entryDy=0;exitX=0.5;exitY=0;exitDx=0;exitDy=0;" edge="1" parent="1" source="8mV6GlIWKGGO815or_Ux-14" target="8mV6GlIWKGGO815or_Ux-2">
          <mxGeometry width="50" height="50" relative="1" as="geometry">
            <mxPoint x="400" y="530" as="sourcePoint" />
            <mxPoint x="410" y="190" as="targetPoint" />
          </mxGeometry>
        </mxCell>
        <mxCell id="8mV6GlIWKGGO815or_Ux-7" value="" style="endArrow=none;html=1;rounded=0;entryX=0;entryY=0.5;entryDx=0;entryDy=0;" edge="1" parent="1" source="8mV6GlIWKGGO815or_Ux-8" target="8mV6GlIWKGGO815or_Ux-5">
          <mxGeometry width="50" height="50" relative="1" as="geometry">
            <mxPoint x="180" y="340" as="sourcePoint" />
            <mxPoint x="230" y="290" as="targetPoint" />
          </mxGeometry>
        </mxCell>
        <mxCell id="8mV6GlIWKGGO815or_Ux-10" value="" style="endArrow=none;html=1;rounded=0;entryX=0;entryY=0.5;entryDx=0;entryDy=0;" edge="1" parent="1" target="8mV6GlIWKGGO815or_Ux-9">
          <mxGeometry width="50" height="50" relative="1" as="geometry">
            <mxPoint x="180" y="340" as="sourcePoint" />
            <mxPoint x="640" y="340" as="targetPoint" />
          </mxGeometry>
        </mxCell>
        <mxCell id="8mV6GlIWKGGO815or_Ux-9" value="" style="rhombus;whiteSpace=wrap;html=1;" vertex="1" parent="1">
          <mxGeometry x="240" y="315" width="50" height="50" as="geometry" />
        </mxCell>
        <mxCell id="8mV6GlIWKGGO815or_Ux-11" value="" style="endArrow=none;html=1;rounded=0;entryX=0;entryY=0.5;entryDx=0;entryDy=0;" edge="1" parent="1" source="8mV6GlIWKGGO815or_Ux-9" target="8mV6GlIWKGGO815or_Ux-8">
          <mxGeometry width="50" height="50" relative="1" as="geometry">
            <mxPoint x="290" y="340" as="sourcePoint" />
            <mxPoint x="640" y="340" as="targetPoint" />
          </mxGeometry>
        </mxCell>
        <mxCell id="8mV6GlIWKGGO815or_Ux-8" value="" style="rhombus;whiteSpace=wrap;html=1;" vertex="1" parent="1">
          <mxGeometry x="530" y="315" width="50" height="50" as="geometry" />
        </mxCell>
        <mxCell id="8mV6GlIWKGGO815or_Ux-13" value="" style="endArrow=none;html=1;rounded=0;entryX=0.5;entryY=1;entryDx=0;entryDy=0;exitX=0.5;exitY=0;exitDx=0;exitDy=0;" edge="1" parent="1" source="8mV6GlIWKGGO815or_Ux-3" target="8mV6GlIWKGGO815or_Ux-12">
          <mxGeometry width="50" height="50" relative="1" as="geometry">
            <mxPoint x="405" y="540" as="sourcePoint" />
            <mxPoint x="405" y="120" as="targetPoint" />
          </mxGeometry>
        </mxCell>
        <mxCell id="8mV6GlIWKGGO815or_Ux-12" value="" style="rhombus;whiteSpace=wrap;html=1;" vertex="1" parent="1">
          <mxGeometry x="380" y="420" width="50" height="50" as="geometry" />
        </mxCell>
        <mxCell id="8mV6GlIWKGGO815or_Ux-15" value="" style="endArrow=none;html=1;rounded=0;entryX=0.5;entryY=1;entryDx=0;entryDy=0;exitX=0.5;exitY=0;exitDx=0;exitDy=0;" edge="1" parent="1" source="8mV6GlIWKGGO815or_Ux-12" target="8mV6GlIWKGGO815or_Ux-14">
          <mxGeometry width="50" height="50" relative="1" as="geometry">
            <mxPoint x="405" y="420" as="sourcePoint" />
            <mxPoint x="405" y="120" as="targetPoint" />
          </mxGeometry>
        </mxCell>
        <mxCell id="8mV6GlIWKGGO815or_Ux-14" value="" style="rhombus;whiteSpace=wrap;html=1;" vertex="1" parent="1">
          <mxGeometry x="380" y="190" width="50" height="50" as="geometry" />
        </mxCell>
        <mxCell id="8mV6GlIWKGGO815or_Ux-1" value="ORDERS" style="rounded=0;whiteSpace=wrap;html=1;" vertex="1" parent="1">
          <mxGeometry x="345" y="310" width="120" height="60" as="geometry" />
        </mxCell>
        <mxCell id="8mV6GlIWKGGO815or_Ux-16" value="Categories i Subcategories ovde" style="text;html=1;align=center;verticalAlign=middle;whiteSpace=wrap;rounded=0;" vertex="1" parent="1">
          <mxGeometry x="670" y="280" width="120" height="30" as="geometry" />
        </mxCell>
        <mxCell id="8mV6GlIWKGGO815or_Ux-17" value="One to many" style="text;html=1;align=center;verticalAlign=middle;resizable=0;points=[];autosize=1;strokeColor=none;fillColor=none;" vertex="1" parent="1">
          <mxGeometry x="195" y="268" width="90" height="30" as="geometry" />
        </mxCell>
        <mxCell id="8mV6GlIWKGGO815or_Ux-18" value="Many to one" style="text;html=1;align=center;verticalAlign=middle;resizable=0;points=[];autosize=1;strokeColor=none;fillColor=none;" vertex="1" parent="1">
          <mxGeometry x="530" y="268" width="90" height="30" as="geometry" />
        </mxCell>
        <mxCell id="8mV6GlIWKGGO815or_Ux-19" value="Many to one" style="text;html=1;align=center;verticalAlign=middle;resizable=0;points=[];autosize=1;strokeColor=none;fillColor=none;rotation=90;" vertex="1" parent="1">
          <mxGeometry x="440" y="440" width="90" height="30" as="geometry" />
        </mxCell>
        <mxCell id="8mV6GlIWKGGO815or_Ux-20" value="Many to one" style="text;html=1;align=center;verticalAlign=middle;resizable=0;points=[];autosize=1;strokeColor=none;fillColor=none;rotation=-90;" vertex="1" parent="1">
          <mxGeometry x="300" y="180" width="90" height="30" as="geometry" />
        </mxCell>
      </root>
    </mxGraphModel>
  </diagram>
</mxfile>
